<?xml version="1.0" encoding="UTF-8" standalone="no"?>
<!-- Created with Inkscape (http://www.inkscape.org/) -->

<svg
   version="1.1"
   id="svg132"
   width="2000"
   height="2000"
   viewBox="0 0 2000 2000"
   sodipodi:docname="cmeri.svg"
   xml:space="preserve"
   inkscape:version="1.2 (dc2aedaf03, 2022-05-15)"
   xmlns:inkscape="http://www.inkscape.org/namespaces/inkscape"
   xmlns:sodipodi="http://sodipodi.sourceforge.net/DTD/sodipodi-0.dtd"
   xmlns="http://www.w3.org/2000/svg"
   xmlns:svg="http://www.w3.org/2000/svg"><defs
     id="defs136" /><sodipodi:namedview
     id="namedview134"
     pagecolor="#ffffff"
     bordercolor="#000000"
     borderopacity="0.25"
     inkscape:showpageshadow="2"
     inkscape:pageopacity="0.0"
     inkscape:pagecheckerboard="0"
     inkscape:deskcolor="#d1d1d1"
     showgrid="false"
     inkscape:zoom="0.18011363"
     inkscape:cx="-202.64985"
     inkscape:cy="1115.9622"
     inkscape:window-width="1600"
     inkscape:window-height="837"
     inkscape:window-x="-8"
     inkscape:window-y="-8"
     inkscape:window-maximized="1"
     inkscape:current-layer="svg132" /><path
     style="fill:#000000;stroke-width:8.75576"
     d="m 278.43602,1919.0937 c -24.5108,-19.3739 -44.565,-40.0865 -44.565,-46.0264 0,-5.939 110.3225,-121.0694 245.1614,-255.8432 230.3089,-230.1986 245.1613,-246.9545 245.1613,-276.5796 0,-39.9885 -24.9565,-64.0195 -66.4842,-64.0195 -28.3801,0 -48.6339,17.9966 -280.3529,249.1014 l -249.76279,249.1013 -38.796956,-43.5389 c -21.33822,-23.947 -47.505258,-63.789 -47.352738,-71.1438 0.17337,-8.3477 16.410498,10.6713 28.533718,26.9684 10.68273,14.3611 28.06344,36.0316 38.623856,48.1566 l 19.20077,22.0461 252.57614,-251.728 c 182.6942,-182.0813 258.0901,-251.7281 272.5038,-251.7281 48.9649,0 88.3422,40.6889 88.6276,91.5809 0.1926,33.7832 -6.1264,41.0172 -247.155,283.0588 l -247.3504,248.3895 30.0197,23.3927 c 56.2438,43.8288 75.13206,59.8353 64.96846,60.1269 -5.5871,0.1576 -39.04596,-21.9404 -63.55676,-41.3151 z m 102.7553,0.2539 c 119.3575,-107.9436 308.7035,-194.0802 482.2486,-219.3826 101.488,-14.7962 273.35658,-6.2138 368.58768,18.4073 142.8459,36.9318 325.4622,132.8266 397.8364,208.9107 37.93,39.8746 40.5565,48.109 -19.1831,-0.228 -156.9129,-126.9638 -396.332,-217.8982 -606.303,-217.8982 -219.43508,0 -434.41458,83.2638 -610.91808,218.5465 -67.3924,51.6537 -65.2997,39.6049 -12.2685,-8.3548 z m 1297.17258,19.1883 c 11.9254,-8.1744 34.8409,-26.3347 50.9226,-40.3553 l 29.2399,-25.4916 -250.1153,-250.6633 c -226.7961,-227.2908 -250.1162,-253.3645 -250.1162,-279.6458 0,-21.287 7.9047,-36.8881 29.7696,-58.7529 31.5584,-31.5593 54.4617,-36.5825 86.3625,-18.9414 10.7704,5.9548 128.4452,118.7325 261.4995,250.6153 l 241.9182,239.7878 44.4197,-57.6651 c 19.8432,-25.1026 36.8142,-39.841 36.8142,-33.0518 0,15.8926 -68.4987,97.3196 -82.057,97.3196 -5.6781,0 -116.667,-106.3982 -246.6419,-236.4405 -152.3134,-152.3922 -245.9948,-239.6338 -263.5396,-245.4239 -50.4201,-16.6404 -91.0336,13.3542 -91.0336,67.2311 0,20.1549 42.8629,67.2626 251.0145,275.8686 l 251.0145,251.5634 -28.669,26.7804 c -15.7674,14.7289 -32.6175,25.8443 -35.5485,28.1298 -6.2932,4.9074 -8.8409,7.2598 -16.6763,12.5203 -7.7936,5.2325 -30.4399,20.0426 -38.2781,19.7895 -10.4657,-0.3327 3.7771,-12.2584 19.7003,-23.1742 z M 42.148229,1659.6571 c 0,-2.6801 29.766495,-48.2171 56.551067,-83.4485 61.248424,-80.5627 137.607924,-235.2218 161.315824,-326.7291 59.3903,-229.2346 37.0542,-456.56557 -65.3821,-665.43787 -25.9789,-52.9723 -69.31945,-125.3653 -96.312326,-160.8732 -54.09055,-71.1539 -73.505277,-115.54198 -9.3938,-34.3611 47.505486,60.15362 90.441026,123.0437 131.989226,211.0162 94.5055,200.1029 114.3101,427.29207 56.6318,649.65597 -23.0942,89.0347 -99.3372,245.9099 -155.32102,319.5852 -40.935196,53.8707 -80.078671,101.348 -80.078671,90.5924 z M 1906.427,1604.3338 c -213.5618,-255.0763 -272.8173,-632.32611 -149.5344,-952.01017 31.6617,-82.1006 120.7769,-221.52476 173.8246,-284.88436 54.6026,-65.2167 28.2723,-18.11084 -27.2961,56.09596 -129.8199,173.3649 -191.9052,359.8445 -191.9052,576.40506 0,216.56061 62.0853,403.03991 191.9052,576.40491 55.5684,74.2068 90.9786,140.562 3.0059,27.9886 z M 380.37862,494.29513 127.80248,242.56703 l -19.20077,22.0461 c -10.560416,12.1253 -27.941126,33.7958 -38.623856,48.1567 -12.12322,16.2973 -21.244938,39.73239 -21.418038,31.38519 -0.15235,-7.3554 18.898838,-51.61399 40.237058,-75.56049 l 38.796956,-43.53906 249.76279,249.10136 c 231.719,231.1049 251.9728,249.1015 280.3529,249.1015 41.5277,0 66.4842,-24.0311 66.4842,-64.0195 0,-29.6251 -14.8524,-46.3809 -245.1613,-276.5797 -134.8389,-134.7741 -245.1614,-249.9039 -245.1614,-255.84372 0,-12.6885 95.8937,-85.2598 110.7396,-84.65889 5.5872,0.2259 -14.8015,14.878365 -31.3124,27.895375 -74.9153,59.062245 -96.7304,22.73512 181.0568,301.500235 241.0566,241.9055 247.345,249.1033 247.155,282.8899 -0.2889,50.8924 -39.6627,91.5813 -88.6276,91.5813 -14.4137,0 -89.8096,-69.6474 -272.5038,-251.7282 z m 907.68588,221.9586 c -21.8649,-21.8649 -29.7696,-37.4659 -29.7696,-58.7531 0,-26.2811 23.3201,-52.3549 250.1162,-279.6464 l 250.1153,-250.66294 -29.2399,-25.49187 c -16.0817,-14.020515 -38.9972,-32.180405 -50.9226,-40.355215 -15.9232,-10.91572 -22.5596,-19.401939 -12.0939,-19.739209 7.8382,-0.25217 24.4217,13.8024 32.512,18.563238 8.9395,5.260554 -4.8297,0.129122 -1.1129,0.129122 3.7168,0 35.73,23.583469 51.4974,38.312759 l 28.669,26.780465 -251.0145,251.56335 c -208.1516,208.606 -251.0145,255.7137 -251.0145,275.8689 0,53.8766 40.6135,83.8712 91.0336,67.2309 17.5448,-5.7902 111.2262,-93.0322 263.5396,-245.4243 129.9749,-130.0422 240.9638,-236.4403 246.6419,-236.4403 13.5583,0 83.0415,82.83522 83.0415,98.72812 0,6.7891 -26.298,-21.38092 -46.1412,-46.48372 l -36.0772,-45.6414 -241.9182,239.7875 c -133.0543,131.8831 -250.7291,244.6598 -261.4995,250.6154 -31.9008,17.6411 -54.8041,12.618 -86.3625,-18.9413 z M 832.15562,295.82483 C 669.58842,264.87863 493.14325,174.17889 374.18365,72.220851 c -57.1038,-48.94251 -26.82173,-34.111986 38.39047,15.870444 177.5733,136.102875 371.8783,202.632335 591.80378,202.632335 209.971,0 428.7792,-75.72108 585.6921,-202.685305 59.7396,-48.33714 96.8627,-63.167525 58.9327,-23.292915 -72.2052,75.90623 -273.434,179.46722 -416.9751,216.95982 -95.0201,24.8189 -304.76078,32.2249 -399.87198,14.1196 z"
     id="path5359"
     sodipodi:nodetypes="cscsscccsscccscsccccccsscssccccccsccsccssscsccsssccsccscscsssccscsscscssccccsscsccccsscsccsccsscccssssscccccsscsccss" /></svg>
